<?xml version="1.0" encoding="utf-8"?>
<!-- Svg Vector Icons : http://www.onlinewebfonts.com/icon -->
<!DOCTYPE svg PUBLIC "-//W3C//DTD SVG 1.1//EN" "http://www.w3.org/Graphics/SVG/1.1/DTD/svg11.dtd">
<svg version="1.1" xmlns="http://www.w3.org/2000/svg" xmlns:xlink="http://www.w3.org/1999/xlink" x="0px" y="0px" viewBox="0 0 256 256" enable-background="new 0 0 256 256" xml:space="preserve">
<metadata> Svg Vector Icons : http://www.onlinewebfonts.com/icon </metadata>
<g> <path fill="#000000" d="M231.7,246c-1.6,0-3-0.8-3.8-2.3c-1.2-1-10.6-7.9-48-7.9c-6.6,0-12.8,0.2-18.3,0.6 c-2.6,0.2-4.9-1.7-5.1-4.3c-0.2-2.6,1.7-4.9,4.4-5.1c5.8-0.5,12.2-0.7,19-0.7c25.5,0,39.5,3.1,47.1,6.2V26.8 c-3.4-2.1-15.2-7.4-47.1-7.4c-32,0-43.7,5.3-47.1,7.4v214.1c0,2.2-1.3,4.4-3.5,4.9c-2.1,0.5-4.1-0.3-5-2.1c-1.2-1-10.6-7.9-48-7.9 s-46.8,6.8-48,7.9c-1,1.9-2.9,2.6-5,2.1c-2.2-0.5-3.5-2.7-3.5-4.9V24.5c0-1.1,0.4-2.1,1-2.9C22.1,19.7,32,10,76.2,10 c8,0,15.3,0.3,21.9,1c2.6,0.3,4.5,2.6,4.2,5.1c-0.3,2.6-2.5,4.5-5.1,4.2c-6.2-0.6-13.3-0.9-21-0.9c-31.9,0-43.7,5.3-47.1,7.4v205.8 c7.6-3.1,21.6-6.2,47.1-6.2c25.5,0,39.5,3.1,47.1,6.2V24.5c0-1.1,0.4-2.1,1-2.9c1.5-1.9,11.3-11.6,55.5-11.6 c44.2,0,54,9.7,55.5,11.6c0.6,0.8,1,1.9,1,2.9v216.4c0,2.2-1.4,4.4-3.5,4.9C232.5,245.9,232.1,246,231.7,246z"/></g>
</svg>